<?xml version="1.0" encoding="UTF-8" standalone="no"?>
<!-- Created with Inkscape (http://www.inkscape.org/) -->

<svg
   xmlns:dc="http://purl.org/dc/elements/1.1/"
   xmlns:cc="http://creativecommons.org/ns#"
   xmlns:rdf="http://www.w3.org/1999/02/22-rdf-syntax-ns#"
   xmlns:svg="http://www.w3.org/2000/svg"
   xmlns="http://www.w3.org/2000/svg"
   xmlns:xlink="http://www.w3.org/1999/xlink"
   xmlns:sodipodi="http://sodipodi.sourceforge.net/DTD/sodipodi-0.dtd"
   xmlns:inkscape="http://www.inkscape.org/namespaces/inkscape"
   width="72.248886mm"
   height="72.250252mm"
   viewBox="0 0 255.99999 256.00483"
   id="svg2"
   version="1.1"
   inkscape:version="0.91 r13725"
   sodipodi:docname="orion.svg"
   inkscape:export-filename="/home/antti/git/orion/src/qml/icon/orion.svg.png"
   inkscape:export-xdpi="90"
   inkscape:export-ydpi="90">
  <defs
     id="defs4">
    <linearGradient
       inkscape:collect="always"
       id="linearGradient5274">
      <stop
         style="stop-color:#6944ad;stop-opacity:1;"
         offset="0"
         id="stop5276" />
      <stop
         style="stop-color:#000000;stop-opacity:1"
         offset="1"
         id="stop5278" />
    </linearGradient>
    <linearGradient
       inkscape:collect="always"
       xlink:href="#linearGradient5274"
       id="linearGradient5280"
       x1="360"
       y1="598.07648"
       x2="1808.5714"
       y2="1778.0765"
       gradientUnits="userSpaceOnUse"
       spreadMethod="pad"
       gradientTransform="matrix(0.30447617,0,0,0.30447617,1.3786464e-7,731.94297)" />
  </defs>
  <sodipodi:namedview
     id="base"
     pagecolor="#ffffff"
     bordercolor="#666666"
     borderopacity="1.0"
     inkscape:pageopacity="0.0"
     inkscape:pageshadow="2"
     inkscape:zoom="2.8"
     inkscape:cx="191.65274"
     inkscape:cy="100.49945"
     inkscape:document-units="px"
     inkscape:current-layer="layer1"
     showgrid="false"
     inkscape:window-width="1920"
     inkscape:window-height="1024"
     inkscape:window-x="0"
     inkscape:window-y="32"
     inkscape:window-maximized="1"
     fit-margin-top="0"
     fit-margin-left="0"
     fit-margin-right="0"
     fit-margin-bottom="0" />
  <metadata
     id="metadata7">
    <rdf:RDF>
      <cc:Work
         rdf:about="">
        <dc:format>image/svg+xml</dc:format>
        <dc:type
           rdf:resource="http://purl.org/dc/dcmitype/StillImage" />
        <dc:title></dc:title>
      </cc:Work>
    </rdf:RDF>
  </metadata>
  <g
     inkscape:label="Layer 1"
     inkscape:groupmode="layer"
     id="layer1"
     transform="translate(-1.7018346e-7,-796.35735)">
    <path
       style="fill:url(#linearGradient5280);fill-opacity:1"
       d="m 127.48757,806.52498 c -37.871388,-0.2244 -75.148588,19.5858 -96.482673,50.91174 -15.844162,22.82107 -23.1598942,51.30771 -20.309513,78.94377 3.289414,35.46748 23.879877,68.83461 54.033817,87.81881 27.065858,17.2689 61.190759,22.9572 92.310989,14.9199 29.01408,-7.2398 55.13275,-26.0406 71.01907,-51.47312 12.69918,-20.01234 19.21836,-44.07762 18.11454,-67.78996 -1.00416,-28.42717 -12.67144,-56.25486 -32.4951,-76.76486 -20.94436,-21.996 -50.59657,-35.69813 -80.95379,-36.49552 -1.73064,-0.0607 -3.49382,-0.0841 -5.23734,-0.0708 z m -44.791897,39.63423 c 8.50869,0.19885 16.001237,8.69878 14.442398,17.23621 -0.827657,7.34825 -7.339361,13.80561 -14.867596,13.84236 -8.434385,0.40949 -16.460785,-7.10678 -16.088472,-15.65495 -0.07216,-7.29753 5.593657,-14.44594 13.009816,-15.21845 0.886084,-0.13139 1.781844,-0.1912 2.677247,-0.19863 0.276318,-0.0113 0.552134,-0.0129 0.826607,-0.007 z m 54.260387,9.6808 c 6.12511,-0.25043 10.84457,7.5962 7.27413,12.7535 -2.66069,5.0593 -10.74202,5.52825 -13.97796,0.80461 -3.17002,-4.04488 -1.72897,-10.95373 3.23923,-12.8332 1.08682,-0.48275 2.27739,-0.7173 3.4646,-0.72491 z m -90.8677,27.80723 c 8.478928,0.22775 15.517972,9.51028 12.915855,17.74347 -2.05765,7.78863 -11.613881,12.81981 -19.052953,9.26571 -7.03416,-2.99833 -10.875815,-12.29577 -7.058257,-19.15464 2.316598,-4.56854 7.199565,-7.8342 12.370532,-7.84799 0.276236,-0.0119 0.551309,-0.0139 0.824823,-0.007 z m 110.46181,17.45208 c 0.16915,-0.002 0.33855,-6.1e-4 0.50786,0.005 7.18387,0.0457 12.73329,8.6107 9.51607,15.1352 -2.51589,6.13861 -11.2744,8.6842 -16.46788,4.34176 -5.3656,-3.80332 -5.84311,-12.78868 -0.5138,-16.84669 1.92037,-1.66563 4.42059,-2.60186 6.95775,-2.63563 z m 66.3996,35.81163 c 7.29111,0.14222 13.75374,7.35856 12.46865,14.68681 -0.74457,8.0803 -10.27948,14.00005 -17.78509,10.62634 -6.5213,-2.43551 -10.26943,-10.55679 -7.4561,-17.0251 1.87027,-4.84237 6.85645,-8.31857 12.06427,-8.27972 0.23669,-0.0104 0.47307,-0.0129 0.70827,-0.008 z m -90.47284,1.51049 c 0.29823,-3.1e-4 0.59693,0.007 0.89618,0.0226 11.16609,0.15347 20.22775,12.03 17.65487,22.85296 -1.93519,9.76012 -12.49145,16.71251 -22.22914,14.64697 -9.3121,-1.77625 -16.35702,-11.28483 -15.1691,-20.72936 0.95948,-9.27656 9.60198,-16.78295 18.84719,-16.79317 z m 35.75454,68.61536 c 6.50063,0.017 11.29455,8.0727 7.95326,13.7413 -2.66585,5.3035 -10.82118,6.7783 -14.87117,2.2318 -4.2757,-4.145 -3.30128,-12.4809 2.32401,-14.9568 1.41581,-0.7272 3.00913,-1.0365 4.5939,-1.0163 z"
       id="path3709"
       inkscape:connector-curvature="0"
       sodipodi:nodetypes="ccccccccccccccccccccccccccccccccccccccccccccccccccc" />
    <path
       style="fill:#ffffff;fill-opacity:1"
       d="m 133.45297,871.57197 c -3.90097,-1.69584 -5.64852,-7.33093 -3.53873,-11.41082 1.61129,-3.11589 6.42773,-4.83517 9.67278,-3.45282 6.70291,2.85541 7.19321,12.2105 0.78039,14.88995 -2.62097,1.09511 -4.34999,1.08853 -6.91444,-0.0262 z"
       id="path4615"
       inkscape:connector-curvature="0" />
    <path
       style="fill:#e6e6e6;fill-opacity:1"
       d="m 163.20357,1024.1651 c -4.45199,-2.8867 -5.5827,-8.7133 -2.57794,-13.2843 2.24404,-3.4137 8.37539,-4.5994 11.7926,-2.2804 2.02577,1.3748 2.57729,2.0199 3.67058,4.2938 1.5493,3.2224 0.7367,7.7497 -1.81147,10.0922 -2.77739,2.5533 -8.08293,3.118 -11.07377,1.1787 z"
       id="path4651"
       inkscape:connector-curvature="0" />
    <path
       style="fill:#e6e6e6;fill-opacity:1"
       d="m 127.90231,975.4955 c -1.2558,-0.35355 -3.10643,-1.06276 -4.11252,-1.57603 -2.83184,-1.4447 -6.51631,-5.42381 -8.20613,-8.86236 -1.42523,-2.90014 -1.49181,-3.24954 -1.49181,-7.82939 0,-4.38686 0.10498,-5.00768 1.23677,-7.31389 1.90038,-3.87236 5.432,-7.4029 9.33442,-9.33158 3.18589,-1.57456 3.4648,-1.63224 7.89231,-1.63224 4.26382,0 4.7989,0.0991 7.53608,1.39564 8.70379,4.12278 13.19293,14.41166 10.11365,23.17994 -1.67292,4.76365 -6.37337,9.41701 -11.43194,11.31739 -3.22692,1.21228 -7.88865,1.4921 -10.87083,0.65252 z"
       id="path4653"
       inkscape:connector-curvature="0" />
    <path
       style="fill:#e6e6e6;fill-opacity:1"
       d="m 153.88842,922.25632 c -4.4658,-1.4565 -7.2293,-4.81304 -7.69346,-9.34447 -0.31371,-3.06269 0.48209,-5.64664 2.39135,-7.76461 4.24147,-4.70513 10.96427,-5.05498 15.22685,-0.7924 5.27207,5.27207 4.30849,13.23571 -2.01813,16.67909 -2.25501,1.22732 -6.07885,1.81851 -7.90661,1.22239 z"
       id="path4655"
       inkscape:connector-curvature="0" />
    <path
       style="fill:#e6e6e6;fill-opacity:1"
       d="m 134.10028,871.98728 c -3.46021,-1.26915 -5.83371,-5.30385 -5.22826,-8.88748 0.902,-5.3389 6.35713,-8.45908 11.22981,-6.42314 1.79733,0.75096 3.97689,3.22934 4.65983,5.29865 2.05729,6.23363 -4.40836,12.30544 -10.66138,10.01197 z"
       id="path4657"
       inkscape:connector-curvature="0" />
    <path
       style="fill:#e6e6e6;fill-opacity:1"
       d="m 76.349942,875.9409 c -3.198592,-1.34877 -5.204895,-2.88661 -7.086162,-5.43164 -5.410691,-7.31973 -2.57497,-18.63927 5.688014,-22.70524 1.883922,-0.92704 2.766303,-1.0668 6.735092,-1.0668 3.978426,0 4.847486,0.13839 6.741973,1.07352 2.787772,1.37608 5.833961,4.4203 7.195539,7.19085 0.918867,1.8697 1.068815,2.78504 1.068815,6.52447 0,4.12863 -0.07575,4.48938 -1.490685,7.09907 -2.832956,5.22503 -7.13211,7.97731 -12.84521,8.22339 -2.944434,0.12684 -3.894695,-0.0168 -6.007376,-0.90762 z"
       id="path4659"
       inkscape:connector-curvature="0" />
    <path
       style="fill:#e6e6e6;fill-opacity:1"
       d="m 42.083482,911.19453 c -7.789895,-2.18878 -12.335097,-10.89059 -9.546595,-18.27701 1.298076,-3.43842 4.681483,-6.82173 8.119634,-8.11938 10.978844,-4.14373 22.172454,7.44207 17.54817,18.16299 -2.563613,5.94347 -10.267713,9.8781 -16.121209,8.2334 z"
       id="path4661"
       inkscape:connector-curvature="0" />
    <path
       style="fill:#e6e6e6;fill-opacity:1"
       d="m 218.39997,962.27227 c -4.144,-1.53951 -7.37718,-4.9594 -8.4479,-8.93574 -0.70887,-2.63255 -0.30023,-6.6555 0.92364,-9.09288 3.11165,-6.19699 10.88103,-8.84375 17.05728,-5.81084 4.44365,2.1821 6.93695,5.99474 7.21597,11.03433 0.14567,2.63116 0.003,3.49292 -0.90389,5.47469 -2.81447,6.14761 -10.03602,9.48853 -15.8451,7.33044 z"
       id="path4663"
       inkscape:connector-curvature="0" />
    <path
       style="fill:#ececec;fill-opacity:1"
       d="m 112.5105,1051.8617 c -18.555916,-2.3369 -36.745566,-8.8518 -52.685673,-18.8704 -14.516602,-9.1238 -29.356189,-23.6211 -38.597376,-37.707 C -0.26527066,962.524 -5.8262644,921.2556 6.3284481,884.71813 19.161619,846.14115 48.818741,816.16425 86.979553,803.1974 c 46.923157,-15.94426 98.474597,-3.51648 133.112827,32.09021 18.87824,19.40606 30.79983,43.55325 35.08524,71.0651 0.9797,6.28955 1.12194,28.7726 0.22152,35.01476 -3.2305,22.39546 -11.45723,42.41249 -24.68009,60.05083 -20.38351,27.1901 -49.46637,44.5687 -83.7142,50.0238 -6.24081,0.9941 -27.84569,1.2568 -34.49435,0.4196 z m 32.91496,-10.239 c 25.47525,-3.8076 48.48679,-15.4882 66.82429,-33.9197 34.4198,-34.59629 43.85989,-87.20674 23.67834,-131.96153 -5.94811,-13.19058 -13.57136,-24.16006 -24.08329,-34.65466 -6.35787,-6.34738 -10.75265,-9.9483 -18.29859,-14.99316 -15.05125,-10.06258 -31.94113,-16.41392 -50.45605,-18.97368 -6.28222,-0.86855 -24.57307,-0.75029 -31.10007,0.20108 -32.74573,4.7729 -62.267511,22.85973 -80.792999,49.49866 -10.445688,15.02048 -17.230629,32.33649 -20.208691,51.57508 -1.1559993,7.46788 -1.0367789,25.85854 0.21939,33.84261 1.966413,12.49831 5.229636,22.75149 10.936298,34.36231 6.341345,12.90216 13.667337,23.01727 23.785086,32.84049 9.616478,9.3365 17.83404,15.1224 29.958744,21.0938 13.377837,6.5885 27.418542,10.5464 42.409182,11.9546 6.47316,0.608 20.1978,0.17 27.12836,-0.8659 z"
       id="path4817"
       inkscape:connector-curvature="0" />
    <path
       style="fill:#ececec;fill-opacity:1"
       d="m 133.9413,872.05804 c -0.34229,-0.11409 -0.86945,-0.45455 -1.17147,-0.75659 -0.30202,-0.30201 -0.99058,-0.9067 -1.53014,-1.34372 -0.53957,-0.43704 -1.29507,-1.47969 -1.6789,-2.317 -0.68655,-1.49766 -0.95904,-5.02011 -0.45425,-5.87204 0.14175,-0.23922 0.29915,-0.70897 0.34978,-1.04386 0.0506,-0.3349 0.25187,-0.72636 0.4472,-0.86992 0.19533,-0.14359 0.57221,-0.65252 0.83752,-1.13098 0.2653,-0.47845 0.65677,-0.87878 0.86993,-0.88959 0.21315,-0.011 1.1705,-0.40955 2.12742,-0.88608 1.79646,-0.89461 5.15532,-1.07767 6.39513,-0.34851 1.29361,0.76077 3.39161,2.73006 3.39161,3.18352 0,0.25469 0.18254,0.46304 0.40565,0.46304 0.22311,0 0.53609,0.41095 0.6955,0.91325 1.37025,4.31726 -0.75836,9.19655 -4.6174,10.58426 -1.86241,0.6697 -4.57905,0.81039 -6.06758,0.31422 z"
       id="path4819"
       inkscape:connector-curvature="0" />
    <path
       style="fill:#ececec;fill-opacity:1"
       d="m 78.113517,876.43202 c -0.984846,-0.30825 -2.128419,-0.63864 -2.541271,-0.73418 -0.412848,-0.0956 -1.000052,-0.38498 -1.304896,-0.64321 -0.304842,-0.25822 -1.226619,-0.90651 -2.048388,-1.44066 -3.868668,-2.51451 -6.204923,-8.54749 -5.446427,-14.06448 0.426154,-3.09966 0.29793,-2.63734 1.314697,-4.74024 1.935537,-4.00313 4.953581,-6.59239 9.049754,-7.76402 2.444733,-0.69926 9.627941,-0.20616 11.561374,0.79368 2.824327,1.46051 7.125756,6.52769 7.670824,9.03643 0.03898,0.17942 0.107866,0.47303 0.153072,0.65243 0.04521,0.17942 0.05729,2.18224 0.02685,4.45068 -0.05465,4.07234 -0.652112,6.32573 -2.060022,7.76959 -0.313693,0.32171 -0.841067,1.10841 -1.171938,1.74827 -0.631843,1.22183 -4.852967,4.37134 -6.202125,4.62755 -0.433352,0.0823 -0.885779,0.1878 -1.005395,0.23442 -0.119614,0.0466 -0.393487,0.0519 -0.608606,0.0116 -0.215115,-0.0402 -0.704454,0.0543 -1.087415,0.21003 -1.237245,0.50314 -4.461891,0.42742 -6.300081,-0.14795 z"
       id="path4821"
       inkscape:connector-curvature="0" />
    <path
       style="fill:#ececec;fill-opacity:1"
       d="m 39.936093,910.29755 c -2.138034,-1.08403 -5.587421,-4.08801 -5.587421,-4.86594 0,-0.21109 -0.152822,-0.3838 -0.339606,-0.3838 -0.186784,0 -0.602513,-0.63614 -0.923842,-1.41364 -1.492776,-3.61197 -1.65333,-6.86913 -0.505649,-10.25814 0.513133,-1.51526 1.127158,-2.98326 1.3645,-3.26225 1.855314,-2.18087 2.963924,-3.22017 3.993065,-3.74335 0.657885,-0.33447 1.196156,-0.77078 1.196156,-0.96957 0,-0.19883 0.358847,-0.36148 0.797439,-0.36148 0.438591,0 0.933594,-0.13616 1.100005,-0.30256 0.769536,-0.76956 7.089521,-0.84991 8.976707,-0.11418 0.119613,0.0466 0.364284,0.0616 0.543706,0.0333 0.179424,-0.0283 0.326225,0.17684 0.326225,0.45596 0,0.27908 0.118703,0.38875 0.263786,0.24367 0.145079,-0.14508 0.671324,0.11588 1.169432,0.57997 0.498104,0.46405 1.14494,0.84373 1.43741,0.84373 0.292474,0 1.041455,0.63614 1.664404,1.41362 0.622952,0.77751 1.328296,1.65312 1.567431,1.94585 0.386167,0.47264 1.282271,2.39336 1.527362,3.27376 0.04995,0.17942 0.130261,0.37514 0.178469,0.43497 0.248349,0.3081 0.522795,2.06743 0.593704,3.80594 0.08563,2.09934 -0.79879,5.43821 -1.737313,6.55874 -0.316339,0.37768 -0.575162,0.79506 -0.575162,0.9275 0,0.43468 -3.453052,3.70456 -3.676312,3.4813 -0.119848,-0.11985 -0.340889,0.10259 -0.491203,0.4943 -0.150316,0.39172 -0.448523,0.60391 -0.662689,0.47156 -0.214162,-0.13237 -0.389388,-0.0218 -0.389388,0.24565 0,0.26746 -0.195733,0.36533 -0.434966,0.21748 -0.23923,-0.14785 -0.434965,-0.0289 -0.434965,0.26431 0,0.29322 -0.108217,0.42491 -0.240485,0.29264 -0.132267,-0.13227 -1.159874,0.0373 -2.283571,0.3768 -2.884537,0.87152 -5.816442,0.63253 -8.417229,-0.68612 z"
       id="path4823"
       inkscape:connector-curvature="0" />
    <path
       style="fill:#ececec;fill-opacity:1"
       d="m 125.47404,974.58701 c -1.67462,-0.70445 -3.11001,-1.46953 -3.18975,-1.70015 -0.0798,-0.23063 -0.33225,-0.41933 -0.56113,-0.41933 -0.48867,0 -3.86102,-3.46219 -3.86102,-3.96387 0,-0.18841 -0.34254,-0.54207 -0.7612,-0.78591 -0.41865,-0.24384 -0.61193,-0.44931 -0.4295,-0.45658 0.18242,-0.007 -0.13152,-0.74723 -0.69765,-1.64435 -1.32695,-2.10276 -1.7584,-3.46688 -1.65086,-5.21959 0.0477,-0.7775 -0.0662,-1.41352 -0.25312,-1.41338 -0.39711,3e-4 -0.38288,-2.70658 0.0176,-3.35463 0.15011,-0.24288 0.24743,-1.1199 0.21626,-1.94893 -0.0526,-1.39855 1.62186,-5.60425 2.36227,-5.93332 0.17942,-0.0797 0.32622,-0.29463 0.32622,-0.47752 0,-0.39656 4.77844,-5.23342 4.79846,-4.85712 0.008,0.14302 0.30121,-0.11991 0.65245,-0.58429 0.35124,-0.46438 0.63862,-0.69572 0.63862,-0.51409 0,0.18163 0.53826,-0.0474 1.19615,-0.50894 0.65789,-0.46154 1.91893,-1.07355 2.80232,-1.36001 2.15211,-0.69787 7.93076,-0.70476 10.3554,-0.0123 1.07654,0.30743 2.2474,0.61321 2.6019,0.6795 0.35451,0.0663 0.71376,0.32814 0.79834,0.58189 0.0846,0.25374 0.33281,0.35072 0.5516,0.2155 0.2188,-0.13523 0.39782,-0.0386 0.39782,0.21477 0,0.25335 0.19573,0.46063 0.43497,0.46063 1.00715,0 5.65455,4.65149 5.65455,5.65953 0,0.2365 0.17659,0.43 0.39242,0.43 0.32545,0 0.97239,1.34563 1.30407,2.71248 0.0427,0.17609 0.3793,1.15477 0.74792,2.17483 0.89979,2.48991 0.87737,8.39228 -0.0403,10.60656 -1.41455,3.41322 -1.75353,4.0796 -2.07532,4.0796 -0.18083,0 -0.32879,0.27729 -0.32879,0.6162 0,0.33891 -0.182,0.68144 -0.40446,0.76119 -0.22245,0.0797 -1.44817,1.12366 -2.72381,2.31981 -2.28963,2.14696 -5.20382,3.89902 -7.31469,4.39772 -0.596,0.1408 -2.84525,0.31653 -4.99833,0.3905 -3.52301,0.12103 -4.21933,0.006 -6.95945,-1.14635 z"
       id="path4825"
       inkscape:connector-curvature="0" />
    <path
       style="fill:#ececec;fill-opacity:1"
       d="m 152.55067,921.9409 c -0.65788,-0.24028 -1.19616,-0.6163 -1.19616,-0.83559 0,-0.2193 -0.18068,-0.39873 -0.4015,-0.39873 -0.52238,0 -3.07822,-2.55584 -3.07822,-3.07822 0,-0.22082 -0.19574,-0.4015 -0.43497,-0.4015 -0.23923,0 -0.40039,-0.1468 -0.35813,-0.32623 0.0423,-0.17942 -0.17457,-1.20703 -0.48186,-2.28357 -0.63279,-2.21689 -0.38655,-5.44312 0.55432,-7.26256 0.88946,-1.72003 3.31215,-4.15729 4.85281,-4.88199 4.19277,-1.9722 8.93583,-1.01764 12.28153,2.47171 3.90966,4.07754 3.81768,10.35673 -0.21014,14.34573 -2.51716,2.4929 -8.31186,3.82547 -11.52768,2.65095 z"
       id="path4827"
       inkscape:connector-curvature="0" />
    <path
       style="fill:#ececec;fill-opacity:1"
       d="m 217.42665,961.88431 c -3.40849,-1.6794 -4.96456,-3.18961 -6.61585,-6.42089 -1.46655,-2.86978 -1.75369,-7.53006 -0.58088,-9.42772 0.18222,-0.29483 0.21686,-0.53605 0.077,-0.53605 -0.13988,0 0.029,-0.53827 0.37519,-1.19616 0.77462,-1.47188 3.95054,-4.89337 4.54216,-4.89337 0.238,0 0.49973,-0.201 0.58162,-0.44668 0.0819,-0.24567 1.22368,-0.73884 2.5373,-1.09593 5.72437,-1.55607 11.24007,0.20598 14.57053,4.6547 0.76643,1.02377 1.67318,3.17549 1.5755,3.73863 -0.0519,0.29904 0.0611,0.54388 0.25097,0.54409 0.18991,2.2e-4 0.33996,1.32143 0.33345,2.93602 -0.0125,3.10295 -0.82532,6.63284 -1.5273,6.63284 -0.23001,0 -0.41821,0.17271 -0.41821,0.3838 0,0.36775 -3.40273,3.96587 -3.75051,3.96587 -0.0926,0 -1.10055,0.44965 -2.23979,0.99924 -2.86965,1.38437 -7.08701,1.45455 -9.71116,0.16161 z"
       id="path4829"
       inkscape:connector-curvature="0" />
    <path
       style="fill:#ececec;fill-opacity:1"
       d="m 169.55136,1025.3167 c -0.091,-0.091 -1.38441,-0.2095 -2.87418,-0.2633 -1.48976,-0.054 -2.70865,-0.294 -2.70865,-0.5338 0,-0.2399 -0.10916,-0.327 -0.24256,-0.1935 -0.56565,0.5656 -4.08388,-3.6105 -4.44299,-5.2738 -0.40834,-1.8913 0.0376,-5.2464 0.96906,-7.2902 0.8686,-1.906 1.34108,-2.3855 3.13092,-3.1774 3.11233,-1.3771 6.4618,-1.4158 8.63244,-0.1 1.79662,1.0893 3.99554,3.1244 3.38858,3.1361 -0.1891,0 -0.0861,0.1701 0.2288,0.3698 0.31495,0.1997 0.64251,0.735 0.72791,1.1895 0.0854,0.4545 0.19116,0.9242 0.235,1.0439 0.1504,0.4103 -0.0122,4.5671 -0.21999,5.6226 -0.11426,0.5805 -0.37877,1.1677 -0.58779,1.3049 -0.20902,0.1372 -0.5983,0.6643 -0.86508,1.1714 -0.26677,0.5071 -1.22582,1.2506 -2.1312,1.6522 -0.90539,0.4016 -1.9676,0.9049 -2.36046,1.1185 -0.39287,0.2135 -0.78878,0.3138 -0.87981,0.2228 z"
       id="path4831"
       inkscape:connector-curvature="0" />
  </g>
</svg>
