<?xml version="1.0" encoding="UTF-8" standalone="no"?>
<!-- Created with Inkscape (http://www.inkscape.org/) -->

<svg
   xmlns:dc="http://purl.org/dc/elements/1.1/"
   xmlns:cc="http://creativecommons.org/ns#"
   xmlns:rdf="http://www.w3.org/1999/02/22-rdf-syntax-ns#"
   xmlns:svg="http://www.w3.org/2000/svg"
   xmlns="http://www.w3.org/2000/svg"
   xmlns:xlink="http://www.w3.org/1999/xlink"
   xmlns:sodipodi="http://sodipodi.sourceforge.net/DTD/sodipodi-0.dtd"
   xmlns:inkscape="http://www.inkscape.org/namespaces/inkscape"
   width="237.28914mm"
   height="237.29362mm"
   viewBox="0 0 840.78829 840.80418"
   id="svg2"
   version="1.1"
   inkscape:version="0.91 r13725"
   sodipodi:docname="orion-final.svg">
  <defs
     id="defs4">
    <linearGradient
       inkscape:collect="always"
       id="linearGradient5274">
      <stop
         style="stop-color:#6944ad;stop-opacity:1;"
         offset="0"
         id="stop5276" />
      <stop
         style="stop-color:#000000;stop-opacity:1"
         offset="1"
         id="stop5278" />
    </linearGradient>
    <linearGradient
       inkscape:collect="always"
       xlink:href="#linearGradient5274"
       id="linearGradient5280"
       x1="360"
       y1="598.07648"
       x2="1808.5714"
       y2="1778.0765"
       gradientUnits="userSpaceOnUse"
       spreadMethod="pad" />
  </defs>
  <sodipodi:namedview
     id="base"
     pagecolor="#ffffff"
     bordercolor="#666666"
     borderopacity="1.0"
     inkscape:pageopacity="0.0"
     inkscape:pageshadow="2"
     inkscape:zoom="0.49497475"
     inkscape:cx="1081.7516"
     inkscape:cy="248.72403"
     inkscape:document-units="px"
     inkscape:current-layer="layer1"
     showgrid="false"
     inkscape:window-width="1920"
     inkscape:window-height="1024"
     inkscape:window-x="0"
     inkscape:window-y="32"
     inkscape:window-maximized="1"
     fit-margin-top="0"
     fit-margin-left="0"
     fit-margin-right="0"
     fit-margin-bottom="0" />
  <metadata
     id="metadata7">
    <rdf:RDF>
      <cc:Work
         rdf:about="">
        <dc:format>image/svg+xml</dc:format>
        <dc:type
           rdf:resource="http://purl.org/dc/dcmitype/StillImage" />
        <dc:title></dc:title>
      </cc:Work>
    </rdf:RDF>
  </metadata>
  <g
     inkscape:label="Layer 1"
     inkscape:groupmode="layer"
     id="layer1"
     transform="translate(-1.9821699e-7,-211.55802)">
    <path
       style="fill:url(#linearGradient5280);fill-opacity:1"
       d="m 418.71115,244.95185 c -124.3821,-0.737 -246.8127,64.32624 -316.88086,167.21094 -52.037444,74.9519 -76.064718,168.51139 -66.703128,259.27734 10.80352,116.48688 78.429378,226.07563 177.464848,288.42578 88.89319,56.71689 200.97059,75.39919 303.17968,49.00199 95.2918,-23.77794 181.0741,-85.52597 233.25,-169.05472 41.7083,-65.7271 63.11944,-144.7654 59.49414,-222.64453 -3.298,-93.3642 -41.61721,-184.75949 -106.72461,-252.12109 -68.7882,-72.2421 -166.17581,-117.24439 -265.8789,-119.86329 -5.684,-0.1995 -11.47487,-0.27622 -17.20117,-0.23242 z M 271.59982,375.12373 c 27.94534,0.6531 52.55333,28.56967 47.43359,56.60937 -2.7183,24.1341 -24.10488,45.34219 -48.83008,45.46289 -27.7013,1.3449 -54.06264,-23.34101 -52.83984,-51.41601 -0.237,-23.9675 18.37141,-47.44522 42.72852,-49.98242 2.91019,-0.4315 5.85216,-0.62795 8.79296,-0.65235 0.90752,-0.037 1.81339,-0.0425 2.71485,-0.0215 z m 178.20898,31.79492 c 20.11689,-0.8225 35.61713,24.94842 23.89063,41.88672 -8.73859,16.6164 -35.28031,18.15658 -45.90821,2.64258 -10.4114,-13.2847 -5.67852,-35.97564 10.63868,-42.14844 3.5695,-1.5855 7.4797,-2.35586 11.3789,-2.38086 z m -298.43945,91.32812 c 27.84759,0.748 50.96613,31.23487 42.41992,58.2754 -6.758,25.58041 -38.14381,42.10446 -62.57617,30.43164 -23.1025,-9.8475 -35.719759,-40.38337 -23.18164,-62.91016 7.60847,-15.0046 23.64574,-25.73009 40.6289,-25.77539 0.90725,-0.039 1.81068,-0.0455 2.70899,-0.0215 z m 362.79297,57.31836 c 0.55553,-0.007 1.1119,-0.002 1.66797,0.0176 23.5942,0.14996 41.8203,28.2804 31.2539,49.70899 -8.263,20.16121 -37.02883,28.52178 -54.08594,14.25976 -17.62239,-12.49136 -19.1907,-42.00221 -1.6875,-55.33008 6.30713,-5.47045 14.51867,-8.54535 22.85157,-8.65625 z m 218.07812,117.61719 c 23.94641,0.4671 45.17182,24.16794 40.95117,48.23633 -2.4454,26.53837 -33.7612,45.98076 -58.4121,34.90039 -21.4181,-7.99902 -33.72819,-34.67197 -24.48829,-55.91602 6.1426,-15.90396 22.51885,-27.32092 39.62305,-27.19335 0.77736,-0.034 1.5537,-0.0425 2.32617,-0.0273 z m -297.14258,4.96094 c 0.97949,-0.001 1.96052,0.0234 2.94336,0.0742 36.67309,0.50405 66.43458,39.51049 57.98438,75.05664 -6.3558,32.05546 -41.02601,54.88938 -73.00781,48.10547 -30.584,-5.83378 -53.72182,-37.06309 -49.82032,-68.08203 3.15125,-30.46727 31.53607,-55.12075 61.90039,-55.1543 z m 117.42969,225.35547 c 21.3502,0.0567 37.095,26.51346 26.1211,45.13086 -8.7555,17.41867 -35.5403,22.26226 -48.8418,7.33008 -14.0428,-13.61353 -10.84249,-40.9915 7.63281,-49.12305 4.65,-2.38838 9.88299,-3.40437 15.08789,-3.33789 z"
       id="path3709"
       inkscape:connector-curvature="0"
       sodipodi:nodetypes="ccccccccccccccccccccccccccccccccccccccccccccccccccc" />
    <path
       style="fill:#ffffff;fill-opacity:1"
       d="m 438.3035,458.58761 c -12.81209,-5.5697 -18.55162,-24.0772 -11.62235,-37.4769 5.29201,-10.2336 21.11077,-15.8803 31.7686,-11.3402 22.01455,9.3781 23.62487,40.1033 2.56304,48.9035 -8.60811,3.5967 -14.28681,3.5751 -22.70929,-0.086 z"
       id="path4615"
       inkscape:connector-curvature="0" />
    <path
       style="fill:#e6e6e6;fill-opacity:1"
       d="m 536.01425,959.75382 c -14.6218,-9.48096 -18.33541,-28.61746 -8.46678,-43.63006 7.37016,-11.21182 27.50752,-15.10589 38.73077,-7.48958 6.65331,4.51505 8.46468,6.63397 12.05539,14.10223 5.08842,10.58335 2.41956,25.45236 -5.94947,33.1461 -9.12186,8.38584 -26.54698,10.24061 -36.36991,3.87131 z"
       id="path4651"
       inkscape:connector-curvature="0" />
    <path
       style="fill:#e6e6e6;fill-opacity:1"
       d="m 420.07331,799.90668 c -4.12447,-1.16117 -10.20256,-3.49046 -13.50687,-5.17619 -9.3007,-4.74486 -21.40172,-17.81357 -26.95165,-29.1069 -4.68093,-9.52503 -4.89958,-10.67258 -4.89958,-25.71429 0,-14.40792 0.34478,-16.44687 4.06194,-24.02124 6.24148,-12.7181 17.84048,-24.31357 30.65731,-30.64799 10.46353,-5.17136 11.37956,-5.3608 25.92094,-5.3608 14.00379,0 15.76118,0.32545 24.75099,4.58373 28.5861,13.54059 43.32992,47.33264 33.21656,76.13055 -5.49442,15.64541 -20.93227,30.92857 -37.54628,37.17006 -10.59825,3.98151 -25.9089,4.90052 -35.70336,2.14307 z"
       id="path4653"
       inkscape:connector-curvature="0" />
    <path
       style="fill:#e6e6e6;fill-opacity:1"
       d="m 505.42024,625.05169 c -14.66715,-4.78361 -23.7434,-15.80761 -25.26785,-30.69031 -1.03034,-10.0589 1.58334,-18.54543 7.85397,-25.50154 13.9304,-15.4532 36.01027,-16.60223 50.01001,-2.60249 17.3152,17.31521 14.15047,43.47042 -6.62823,54.77961 -7.40617,4.03094 -19.96492,5.97257 -25.9679,4.01473 z"
       id="path4655"
       inkscape:connector-curvature="0" />
    <path
       style="fill:#e6e6e6;fill-opacity:1"
       d="m 440.42949,459.95161 c -11.36449,-4.1683 -19.15985,-17.4196 -17.17134,-29.1894 2.96246,-17.5347 20.8789,-27.7824 36.8824,-21.0957 5.90302,2.4664 13.06142,10.6062 15.30441,17.4025 6.7568,20.4733 -14.47852,40.4151 -35.01547,32.8826 z"
       id="path4657"
       inkscape:connector-curvature="0" />
    <path
       style="fill:#e6e6e6;fill-opacity:1"
       d="m 250.75835,472.93661 c -10.50523,-4.4298 -17.09459,-9.4806 -23.27329,-17.8393 -17.77049,-24.0404 -8.45705,-61.2175 18.68131,-74.5715 6.18742,-3.0447 9.08545,-3.5037 22.12026,-3.5037 13.06646,0 15.92074,0.4545 22.14286,3.5258 9.15596,4.5195 19.16065,14.5177 23.63252,23.6171 3.01786,6.1407 3.51034,9.147 3.51034,21.4285 0,13.5598 -0.2488,14.7446 -4.8959,23.3157 -9.30436,17.1607 -23.4242,26.2001 -42.1879,27.0083 -9.67049,0.4166 -12.79146,-0.055 -19.7302,-2.9809 z"
       id="path4659"
       inkscape:connector-curvature="0" />
    <path
       style="fill:#e6e6e6;fill-opacity:1"
       d="m 138.21601,588.72114 c -25.58458,-7.18868 -40.512518,-35.7683 -31.35416,-60.02773 4.26331,-11.2929 15.37553,-22.4048 26.66755,-26.6667 36.05814,-13.6094 72.82164,24.4422 57.63397,59.65322 -8.41975,19.52033 -33.72255,32.44295 -52.94736,27.04121 z"
       id="path4661"
       inkscape:connector-curvature="0" />
    <path
       style="fill:#e6e6e6;fill-opacity:1"
       d="m 717.29743,756.47726 c -13.61028,-5.05627 -24.2291,-16.2883 -27.74569,-29.34793 -2.32817,-8.64616 -0.98605,-21.85886 3.03353,-29.86402 10.21969,-20.35293 35.73688,-29.04576 56.02172,-19.08469 14.59441,7.16674 22.78323,19.6887 23.69961,36.24035 0.47844,8.64161 0.0111,11.47192 -2.96867,17.98069 -9.24365,20.19079 -32.9616,31.16347 -52.0405,24.0756 z"
       id="path4663"
       inkscape:connector-curvature="0" />
    <path
       style="fill:#ececec;fill-opacity:1"
       d="M 369.52153,1050.7183 C 308.57779,1043.0434 248.83699,1021.6462 196.48443,988.74195 148.80713,958.77617 100.06904,911.16235 69.717938,864.89964 -0.87123666,757.304 -19.135371,621.76501 20.784707,501.76391 62.933067,375.06441 160.33682,276.61041 285.66949,234.02301 c 154.1111,-52.3662 323.423,-11.5493 437.18637,105.3948 62.00233,63.7359 101.15678,143.0432 115.23148,233.40119 3.21765,20.65695 3.6848,94.4987 0.72753,115 -10.61001,73.55407 -37.62933,139.2966 -81.05754,197.22661 -66.94617,89.30124 -162.46384,146.37829 -274.94499,164.29479 -20.49688,3.2648 -91.45442,4.1278 -113.29081,1.3779 z m 108.10357,-33.628 c 83.66909,-12.5056 159.24657,-50.86835 219.47296,-111.40355 113.04597,-113.62562 144.05033,-286.41568 77.76748,-433.40514 -19.53557,-43.3222 -44.57281,-79.3496 -79.09745,-113.8173 -20.88136,-20.8469 -35.31525,-32.6735 -60.0986,-49.2425 -49.43327,-33.0488 -104.9052,-53.9087 -165.71429,-62.3158 -20.63287,-2.8526 -80.70604,-2.4642 -102.14286,0.6604 -107.54777,15.6758 -204.50702,75.0789 -265.35082,162.5699 -34.307079,49.3322 -56.59106,106.2037 -66.371996,169.38956 -3.796683,24.52696 -3.405124,84.92796 0.720547,111.15027 6.458349,41.04856 17.175849,74.72339 35.918404,112.85714 20.827066,42.37493 44.888035,75.59629 78.118055,107.85886 31.58368,30.66414 58.57286,49.6671 98.39438,69.27903 43.93722,21.63893 90.05153,34.63793 139.28572,39.26283 21.25999,1.9971 66.33623,0.5584 89.09847,-2.8437 z"
       id="path4817"
       inkscape:connector-curvature="0" />
    <path
       style="fill:#ececec;fill-opacity:1"
       d="m 439.90734,460.18401 c -1.12419,-0.3747 -2.85556,-1.4929 -3.84749,-2.4849 -0.99193,-0.9919 -3.25341,-2.9779 -5.02551,-4.4132 -1.7721,-1.4354 -4.25342,-4.8598 -5.51405,-7.6098 -2.25486,-4.9188 -3.14981,-16.4877 -1.49191,-19.2857 0.46556,-0.7857 0.98253,-2.3285 1.14881,-3.4284 0.16629,-1.0999 0.82722,-2.3856 1.46875,-2.8571 0.64152,-0.4716 1.87932,-2.1431 2.75067,-3.7145 0.87135,-1.5714 2.15706,-2.8862 2.85714,-2.9217 0.70008,-0.036 3.84431,-1.3451 6.98717,-2.9102 5.90016,-2.9382 16.93176,-3.5394 21.0037,-1.1446 4.24864,2.4986 11.13915,8.9664 11.13915,10.4557 0,0.8365 0.59954,1.5208 1.33231,1.5208 0.73276,0 1.76068,1.3497 2.28426,2.9994 4.50033,14.1793 -2.49073,30.2045 -15.16508,34.7622 -6.11678,2.1995 -15.03911,2.6616 -19.92792,1.032 z"
       id="path4819"
       inkscape:connector-curvature="0" />
    <path
       style="fill:#ececec;fill-opacity:1"
       d="m 256.55051,474.54961 c -3.23456,-1.0124 -6.99043,-2.0975 -8.34637,-2.4113 -1.35593,-0.3138 -3.2845,-1.2644 -4.28571,-2.1125 -1.0012,-0.8481 -4.02862,-2.9773 -6.72758,-4.7316 -12.70598,-8.2585 -20.37901,-28.0728 -17.88786,-46.1924 1.39963,-10.1803 0.9785,-8.6619 4.3179,-15.5685 6.35694,-13.1476 16.26919,-21.6516 29.72237,-25.4996 8.02931,-2.2966 31.62133,-0.6771 37.97136,2.6067 9.27602,4.7968 23.40333,21.4391 25.19351,29.6786 0.12803,0.5893 0.35427,1.5536 0.50274,2.1428 0.14848,0.5893 0.18815,7.1672 0.0882,14.6175 -0.1795,13.3749 -2.14175,20.7758 -6.76579,25.5179 -1.03027,1.0566 -2.76234,3.6404 -3.84903,5.7419 -2.07518,4.0129 -15.93874,14.3569 -20.36982,15.1984 -1.42327,0.2703 -2.90919,0.6168 -3.30205,0.7699 -0.39285,0.1532 -1.29234,0.1704 -1.99886,0.038 -0.70651,-0.1321 -2.31366,0.1783 -3.57143,0.6898 -4.06352,1.6525 -14.65432,1.4038 -20.69154,-0.4859 z"
       id="path4821"
       inkscape:connector-curvature="0" />
    <path
       style="fill:#ececec;fill-opacity:1"
       d="m 131.16328,585.77515 c -7.02201,-3.5603 -18.35093,-13.42637 -18.35093,-15.98136 0,-0.69328 -0.50192,-1.26051 -1.11538,-1.26051 -0.61346,0 -1.97885,-2.08928 -3.0342,-4.64285 -4.90277,-11.86292 -5.43008,-22.56048 -1.66072,-33.69112 1.6853,-4.9766 3.70196,-9.798 4.48147,-10.7143 6.09346,-7.1627 9.7345,-10.5761 13.11454,-12.2944 2.16071,-1.0985 3.92857,-2.5315 3.92857,-3.1844 0,-0.653 1.17857,-1.1872 2.61905,-1.1872 1.44048,0 3.06623,-0.4472 3.61278,-0.9937 2.52741,-2.5275 23.28432,-2.7914 29.48246,-0.375 0.39285,0.1531 1.19643,0.2023 1.78571,0.1093 0.58929,-0.093 1.07143,0.5808 1.07143,1.4975 0,0.9166 0.38986,1.2768 0.86636,0.8003 0.47649,-0.4765 2.20485,0.3806 3.8408,1.9048 1.63594,1.5241 3.76036,2.7711 4.72093,2.7711 0.96058,0 3.42048,2.0893 5.46645,4.6428 2.04598,2.5536 4.36256,5.4294 5.14796,6.3908 1.2683,1.5523 4.2114,7.8606 5.01636,10.7521 0.16406,0.5893 0.42782,1.2321 0.58615,1.4286 0.81566,1.0119 1.71703,6.79013 1.94992,12.49996 0.28123,6.89493 -2.62349,17.86088 -5.70591,21.54106 -1.03896,1.24044 -1.88902,2.61123 -1.88902,3.04622 0,1.42762 -11.34096,12.167 -12.07422,11.43374 -0.39362,-0.39362 -1.11959,0.33693 -1.61327,1.62345 -0.49369,1.28651 -1.4731,1.98344 -2.17649,1.54873 -0.70338,-0.43472 -1.27888,-0.0717 -1.27888,0.8068 0,0.87845 -0.64285,1.19988 -1.42857,0.71428 -0.78571,-0.48559 -1.42857,-0.095 -1.42857,0.86808 0,0.96303 -0.35542,1.39555 -0.78983,0.96114 -0.43441,-0.43441 -3.80941,0.12248 -7.5,1.23754 -9.47377,2.86234 -19.10311,2.07742 -27.64495,-2.25346 z"
       id="path4823"
       inkscape:connector-curvature="0" />
    <path
       style="fill:#ececec;fill-opacity:1"
       d="m 412.09806,796.92292 c -5.5,-2.31367 -10.21429,-4.82642 -10.47619,-5.58387 -0.26191,-0.75746 -1.09123,-1.3772 -1.84294,-1.3772 -1.60494,0 -12.68087,-11.37098 -12.68087,-13.01868 0,-0.61878 -1.125,-1.78031 -2.5,-2.58117 -1.375,-0.80087 -2.00979,-1.47567 -1.41065,-1.49956 0.59914,-0.0239 -0.43194,-2.45416 -2.2913,-5.40059 -4.35815,-6.90614 -5.77516,-11.38636 -5.42198,-17.14285 0.15667,-2.55357 -0.21742,-4.64248 -0.83132,-4.64201 -1.30423,10e-4 -1.25749,-8.88931 0.0579,-11.0177 0.49301,-0.79772 0.81264,-3.67814 0.71028,-6.40094 -0.17268,-4.59329 5.32673,-18.40621 7.75846,-19.48697 0.58928,-0.26191 1.07143,-0.96765 1.07143,-1.56832 0,-1.30245 15.69397,-17.18828 15.75971,-15.95239 0.025,0.46972 0.98928,-0.39383 2.14286,-1.919 1.15359,-1.52517 2.09743,-2.28497 2.09743,-1.68844 0,0.59654 1.76785,-0.15565 3.92857,-1.67152 2.16071,-1.51587 6.3024,-3.5259 9.20375,-4.46673 7.06823,-2.29204 26.0472,-2.31467 34.01053,-0.0405 3.53572,1.0097 7.38119,2.01397 8.5455,2.23169 1.16431,0.21772 2.34422,1.07772 2.62201,1.91112 0.2778,0.83339 1.09304,1.15189 1.81165,0.70777 0.71861,-0.44413 1.30656,-0.1267 1.30656,0.70538 0,0.83209 0.64285,1.51288 1.42857,1.51288 3.30782,0 18.57143,15.27703 18.57143,18.58776 0,0.77673 0.57997,1.41224 1.28882,1.41224 1.0689,0 3.19365,4.41949 4.283,8.90869 0.14035,0.57835 1.24573,3.79264 2.45642,7.14286 2.95521,8.17768 2.88155,27.56301 -0.13237,34.83543 -4.64583,11.21015 -5.75918,13.39874 -6.81603,13.39874 -0.59391,0 -1.07984,0.91071 -1.07984,2.02381 0,1.11309 -0.59777,2.23809 -1.32838,2.5 -0.73061,0.2619 -4.75627,3.69047 -8.94591,7.61904 -7.51989,7.0513 -17.09105,12.80564 -24.02384,14.44353 -1.95746,0.46245 -9.34473,1.03959 -16.41616,1.28253 -11.57074,0.39751 -13.85767,0.0208 -22.85714,-3.76499 z"
       id="path4825"
       inkscape:connector-curvature="0" />
    <path
       style="fill:#ececec;fill-opacity:1"
       d="m 501.02663,624.01574 c -2.16071,-0.78916 -3.92857,-2.02412 -3.92857,-2.74436 0,-0.72024 -0.59341,-1.30953 -1.31868,-1.30953 -1.71565,0 -10.10989,-8.39424 -10.10989,-10.10989 0,-0.72527 -0.64286,-1.31868 -1.42857,-1.31868 -0.78572,0 -1.31501,-0.48214 -1.17621,-1.07143 0.1388,-0.58928 -0.57337,-3.96428 -1.58261,-7.5 -2.07829,-7.28099 -1.26954,-17.87701 1.82057,-23.85263 2.9213,-5.64916 10.87821,-13.65391 15.93825,-16.03407 13.77042,-6.47737 29.34821,-3.34228 40.33656,8.11789 12.84062,13.39199 12.53853,34.01494 -0.69016,47.11612 -8.26719,8.18749 -27.29887,12.56409 -37.86069,8.70658 z"
       id="path4827"
       inkscape:connector-curvature="0" />
    <path
       style="fill:#ececec;fill-opacity:1"
       d="m 714.10071,755.20305 c -11.19459,-5.51568 -16.30525,-10.47573 -21.72862,-21.0883 -4.81665,-9.42532 -5.75971,-24.73121 -1.90781,-30.96373 0.59846,-0.96833 0.71224,-1.76059 0.25283,-1.76059 -0.4594,0 0.0951,-1.76786 1.23225,-3.92858 2.54411,-4.83414 12.97487,-16.07142 14.91795,-16.07142 0.78167,0 1.64128,-0.66017 1.91024,-1.46705 0.26896,-0.80687 4.01896,-2.4266 8.33333,-3.59939 18.80071,-5.11064 36.91607,0.6765 47.85441,15.28757 2.5172,3.36239 5.49528,10.42934 5.17444,12.27887 -0.17038,0.98214 0.20055,1.78629 0.82428,1.78699 0.62372,7.1e-4 1.11655,4.34 1.09516,9.64286 -0.0411,10.19111 -2.71063,21.78443 -5.01617,21.78443 -0.75543,0 -1.37351,0.56723 -1.37351,1.26051 0,1.20782 -11.17569,13.02521 -12.31793,13.02521 -0.30427,0 -3.61456,1.47683 -7.3562,3.28186 -9.42487,4.54671 -23.27608,4.7772 -31.89465,0.53076 z"
       id="path4829"
       inkscape:connector-curvature="0" />
    <path
       style="fill:#ececec;fill-opacity:1"
       d="m 556.86248,963.5358 c -0.29898,-0.29898 -4.54686,-0.68806 -9.43973,-0.86463 -4.89286,-0.17657 -8.89612,-0.96554 -8.89612,-1.75327 0,-0.78773 -0.35849,-1.07375 -0.79664,-0.6356 -1.85776,1.85776 -13.4128,-11.85783 -14.59224,-17.32068 -1.34111,-6.2117 0.12364,-17.23103 3.18271,-23.94353 2.85277,-6.2598 4.40454,-7.8346 10.28298,-10.43558 10.2219,-4.52279 21.22268,-4.64988 28.35176,-0.32754 5.90069,3.57756 13.12269,10.26157 11.12924,10.30019 -0.62108,0.012 -0.28293,0.55853 0.75145,1.21444 1.03438,0.65591 2.1102,2.41392 2.3907,3.90669 0.2805,1.49278 0.62781,3.03556 0.7718,3.42842 0.49396,1.34778 -0.0402,14.99993 -0.72251,18.46644 -0.37528,1.90654 -1.244,3.83511 -1.93049,4.28571 -0.6865,0.4506 -1.96504,2.18191 -2.84122,3.84735 -0.87617,1.66544 -4.02598,4.1073 -6.99957,5.42635 -2.9736,1.31905 -6.46223,2.97215 -7.75253,3.67356 -1.29029,0.70141 -2.5906,1.03067 -2.88959,0.73168 z"
       id="path4831"
       inkscape:connector-curvature="0" />
  </g>
</svg>
